<svg xmlns="http://www.w3.org/2000/svg" viewBox="0 0 45 45"><path d="M22 10c10.5 1 16.5 8 16 29H15c0-9 10-6.5 8-21" stroke="#000" stroke-width="1.5" stroke-linejoin="round" /><path d="M24 18c.38 2.32-2.46 7-6 7-1.1 0-2.67-.34-4.14-1.02C12.43 31.97 15 39 15 39h17v-.13C31 34 30.2 27 24 18z" stroke="#000" stroke-width="1.5" stroke-linejoin="round" /><path d="M9.5 25.5A4.5 4.5 0 1 1 5 21a4.5 4.5 0 0 1 4.5 4.5z" stroke="#000" stroke-width="1.5" stroke-linejoin="round" /><path d="M15 15.55C17.5 15 20 12 20 8c0-3.5-3.5-4.5-6.5-1.5-3.5 1-4.5 7-1.5 8.55z" stroke="#000" stroke-width="1.5" stroke-linejoin="round" /></svg>