<svg xmlns="http://www.w3.org/2000/svg" viewBox="0 0 45 45"><g fill="#fff" stroke="#000" stroke-width="1.5" stroke-linecap="round" stroke-linejoin="round"><path d="M8 12a2 2 0 1 1-4 0 2 2 0 0 1 4 0zM24.5 7.5a2 2 0 1 1-4 0 2 2 0 0 1 4 0zM41 12a2 2 0 1 1-4 0 2 2 0 0 1 4 0zM10.5 20a2 2 0 1 1-4 0 2 2 0 0 1 4 0zM38.5 20a2 2 0 1 1-4 0 2 2 0 0 1 4 0z" /><path d="M9 26c8.5-1.5 21-1.5 27 0l2-12-7 11V11l-5.5 13.5-3-15-3 15-5.5-13.5V25l-7-11z" /><path d="M9 26c0 2 1.5 2 2.5 4 1 2.5 1 4.5 1 4.5h20s0-2 1-4.5c1-2 2.5-2 2.5-4-8.5-1.5-18.5-1.5-27 0z" /><path d="M9 36c6 2.5 21 2.5 27 0" fill="none" /><path d="M11 39.5c.34-.38 2.05-.5 11.5-.5s11.16.12 11.5.5c-4 3.75-19 3.75-23 0z" /></g></svg>